
<svg version="1.0" xmlns="http://www.w3.org/2000/svg"
 width="176.000000pt" height="176.000000pt" viewBox="0 0 176.000000 176.000000"
 preserveAspectRatio="xMidYMid meet">

<g transform="translate(0.000000,176.000000) scale(0.100000,-0.100000)"
fill="#000000" stroke="none">
<path d="M615 1344 c-44 -22 -66 -46 -60 -61 2 -8 0 -11 -5 -8 -6 3 -15 -6
-20 -20 -13 -35 -13 -48 2 -39 7 4 8 3 4 -5 -4 -6 -11 -9 -16 -6 -11 7 -52
-114 -43 -129 3 -6 2 -7 -2 -3 -12 11 -66 -139 -58 -160 4 -9 2 -14 -3 -10 -6
3 -44 -87 -87 -206 -72 -199 -90 -266 -67 -252 5 3 7 0 4 -9 -13 -33 30 -36
448 -36 400 0 414 1 447 21 45 27 72 60 67 82 -2 9 -1 15 3 13 12 -8 42 88 35
110 -4 13 -3 15 4 6 11 -16 57 102 46 120 -4 6 -3 9 2 5 12 -7 194 499 194
540 0 63 2 63 -455 63 -352 0 -414 -2 -440 -16z m820 -242 c-3 -3 -11 0 -18 7
-9 10 -8 11 6 5 10 -3 15 -9 12 -12z m-475 -21 c0 -5 -7 -25 -15 -44 l-15 -36
-107 -3 -106 -3 -13 -37 -13 -38 100 0 c99 0 100 0 94 -22 -17 -58 -24 -61
-130 -62 l-98 -1 -13 -40 c-44 -130 -40 -125 -96 -125 -46 0 -49 2 -43 21 5
16 4 20 -6 15 -8 -4 -6 -1 3 6 9 8 44 90 78 182 34 92 64 174 67 182 4 11 36
14 159 14 85 0 154 -4 154 -9z m320 -21 c0 -4 -31 -93 -69 -197 l-68 -188 -52
-3 c-61 -4 -61 -2 -26 88 14 36 23 71 20 78 -2 7 -1 11 4 8 11 -7 34 71 25 86
-4 6 -3 8 3 5 6 -4 13 2 16 13 5 18 3 19 -22 5 -14 -8 -39 -23 -56 -34 -38
-26 -39 -26 -54 6 -12 26 -13 27 -26 9 -13 -18 -14 -18 -12 2 0 11 4 20 7 19
10 -3 100 55 100 65 0 5 3 7 8 4 8 -5 84 38 78 45 -3 2 24 2 60 1 35 -2 64 -7
64 -12z m-266 -46 c3 -8 2 -12 -4 -9 -6 3 -10 10 -10 16 0 14 7 11 14 -7z
m373 -19 c0 -8 -4 -12 -9 -9 -5 3 -6 10 -3 15 9 13 12 11 12 -6z m-492 -63
c-3 -3 -11 0 -18 7 -9 10 -8 11 6 5 10 -3 15 -9 12 -12z m-337 -77 c-3 -3 -9
2 -12 12 -6 14 -5 15 5 6 7 -7 10 -15 7 -18z m787 16 c3 -5 2 -12 -3 -15 -5
-3 -9 1 -9 9 0 17 3 19 12 6z m-105 -46 c0 -1 -6 -7 -13 -13 -10 -8 -13 -6
-13 7 0 11 6 17 13 14 7 -3 13 -6 13 -8z m-733 -17 c-3 -8 -6 -5 -6 6 -1 11 2
17 5 13 3 -3 4 -12 1 -19z m-127 -42 c0 -2 -8 -10 -17 -17 -16 -13 -17 -12 -4
4 13 16 21 21 21 13z m-38 -88 c-8 -8 -9 -4 -5 13 4 13 8 18 11 10 2 -7 -1
-18 -6 -23z m841 17 c-3 -9 -8 -14 -10 -11 -3 3 -2 9 2 15 9 16 15 13 8 -4z
m-5 -242 c-5 -7 -14 -10 -19 -7 -16 10 -9 23 10 21 15 -1 17 -4 9 -14z"/>
</g>
</svg>
